<svg width="135px" height="19px" viewBox="0 0 135 19" version="1.1" xmlns="http://www.w3.org/2000/svg" xmlns:xlink="http://www.w3.org/1999/xlink">
    <title>maXus media</title>
    <g id="Page-1" stroke="none" stroke-width="1" fill="none" fill-rule="evenodd">
        <g id="maXus-media" transform="translate(0.200000, 0.400000)" fill="#FFFFFF" fill-rule="nonzero">
            <g>
                <path d="M16.5820739,17.6595745 L14.6772408,17.6595745 L14.6772408,10.212766 C14.6772408,9.10638298 14.4132376,8.27304965 13.8852312,7.71276596 C13.3572248,7.15248227 12.7055714,6.87234043 11.9302708,6.87234043 C11.4624171,6.87234043 10.9678288,7.0070922 10.4465061,7.27659574 C9.9251833,7.54609929 9.47738042,7.92198582 9.10309741,8.40425532 C9.15656641,8.64539007 9.19332635,8.91843972 9.21337723,9.22340426 C9.2334281,9.52836879 9.24345354,9.85815603 9.24345354,10.212766 L9.24345354,17.6595745 L7.3185695,17.6595745 L7.3185695,10.212766 C7.3185695,9.09219858 7.05456631,8.25531915 6.52655993,7.70212766 C5.99855354,7.14893617 5.35358372,6.87234043 4.59165046,6.87234043 C4.16389845,6.87234043 3.69604469,7.0070922 3.18808918,7.27659574 C2.68013367,7.54609929 2.25906529,7.91489362 1.92488403,8.38297872 L1.92488403,17.6595745 L-2.89392265e-15,17.6595745 L-2.89392265e-15,5.36170213 L1.92488403,5.34042553 L1.92488403,6.82978723 C2.09865829,6.56028369 2.31921792,6.31560284 2.58656292,6.09574468 C2.85390793,5.87588652 3.14130381,5.68794326 3.44875056,5.53191489 C3.75619732,5.37588652 4.07701132,5.25531915 4.41119258,5.17021277 C4.74537383,5.08510638 5.07287146,5.04255319 5.39368547,5.04255319 C5.70113223,5.04255319 6.01526261,5.08865248 6.33607661,5.18085106 C6.65689062,5.27304965 6.96433737,5.40425532 7.25841688,5.57446809 C7.55249638,5.74468085 7.81649958,5.94680851 8.05042646,6.18085106 C8.28435333,6.41489362 8.47483665,6.67375887 8.6218764,6.95744681 C8.86248691,6.67375887 9.13985735,6.41489362 9.45398773,6.18085106 C9.76811811,5.94680851 10.1022994,5.74468085 10.4565315,5.57446809 C10.8107636,5.40425532 11.1716794,5.27304965 11.5392788,5.18085106 C11.9068781,5.08865248 12.2711357,5.04255319 12.6320515,5.04255319 C13.1533742,5.04255319 13.6546461,5.13475177 14.1358671,5.31914894 C14.6170881,5.5035461 15.0381565,5.79432624 15.3990723,6.19148936 C15.759988,6.58865248 16.0473839,7.10283688 16.2612599,7.73404255 C16.4751359,8.36524823 16.5820739,9.13475177 16.5820739,10.0425532 L16.5820739,17.6595745 Z" id="Path"></path>
                <path d="M28.2115816,17.6595745 L26.2866976,17.6595745 L26.2866976,16.6808511 C25.7252731,17.1347518 25.1003541,17.4680851 24.4119407,17.6808511 C23.7235274,17.893617 23.0384558,18 22.356726,18 C21.6749963,18 21.07347,17.9042553 20.5521472,17.712766 C20.0308245,17.5212766 19.593047,17.2588652 19.2388149,16.9255319 C18.8845828,16.5921986 18.6205796,16.2021277 18.4468053,15.7553191 C18.2730311,15.3085106 18.1861439,14.8368794 18.1861439,14.3404255 C18.1861439,13.0070922 18.6907576,11.9858156 19.699985,11.2765957 C20.7092124,10.5673759 22.2364208,10.212766 24.2816101,10.212766 L26.3067485,10.212766 C26.3201157,9.73049645 26.2633049,9.27304965 26.136316,8.84042553 C26.0093271,8.40780142 25.8088184,8.03546099 25.5347898,7.72340426 C25.2607611,7.41134752 24.9198963,7.16312057 24.5121951,6.9787234 C24.104494,6.79432624 23.6332984,6.70212766 23.0986084,6.70212766 C22.4970821,6.70212766 21.912265,6.81914894 21.3441568,7.05319149 C20.7760487,7.28723404 20.2647514,7.63120567 19.8102649,8.08510638 L18.667365,6.87234043 C19.308993,6.27659574 20.0007482,5.82269504 20.7426306,5.5106383 C21.4845129,5.19858156 22.2965734,5.04255319 23.1788119,5.04255319 C23.9407452,5.04255319 24.6325004,5.16666667 25.2540775,5.41489362 C25.8756546,5.66312057 26.403661,6.0212766 26.8380967,6.4893617 C27.2725323,6.95744681 27.6100554,7.5248227 27.8506659,8.19148936 C28.0912764,8.85815603 28.2115816,9.61702128 28.2115816,10.4680851 L28.2115816,17.6595745 Z M26.2666467,15.0638298 L26.2666467,11.6382979 L24.2816101,11.6170213 C23.7201855,11.6170213 23.1854955,11.6631206 22.67754,11.7553191 C22.1695845,11.8475177 21.7251234,11.9964539 21.3441568,12.2021277 C20.9631902,12.4078014 20.6624271,12.677305 20.4418674,13.0106383 C20.2213078,13.3439716 20.111028,13.7446809 20.111028,14.212766 C20.111028,14.5815603 20.1912315,14.9007092 20.3516385,15.1702128 C20.5120455,15.4397163 20.7225797,15.6595745 20.9832411,15.8297872 C21.2439024,16 21.5413238,16.1276596 21.875505,16.212766 C22.2096863,16.2978723 22.5505511,16.3404255 22.8980997,16.3404255 C23.5931967,16.3404255 24.211432,16.2375887 24.7528056,16.0319149 C25.2941793,15.8262411 25.798793,15.5035461 26.2666467,15.0638298 Z" id="Shape"></path>
                <polygon id="Path" points="43.7911118 17.6595745 41.2647015 17.6595745 36.5928475 10.2340426 31.9209936 17.6595745 29.4146341 17.6595745 35.3095915 8.80851064 29.8958552 0.638297872 32.3821637 0.638297872 36.5928475 7.29787234 40.7834805 0.638297872 43.2898399 0.638297872 37.8761035 8.76595745"></polygon>
                <path d="M55.1399072,17.6382979 L53.1949723,17.6382979 L53.1949723,16.1489362 C52.9810963,16.3758865 52.7271186,16.5992908 52.4330391,16.8191489 C52.1389595,17.0390071 51.8214874,17.2340426 51.4806225,17.4042553 C51.1397576,17.5744681 50.7855255,17.7092199 50.4179261,17.8085106 C50.0503267,17.9078014 49.6860691,17.9574468 49.3251534,17.9574468 C47.9082248,17.9574468 46.7987431,17.5177305 45.9967081,16.6382979 C45.1946731,15.7588652 44.7936555,14.4609929 44.7936555,12.7446809 L44.7936555,5.34042553 L46.7185396,5.34042553 L46.7185396,12.5744681 C46.7185396,13.7801418 46.9758591,14.6737589 47.4904983,15.2553191 C48.0051374,15.8368794 48.8305651,16.1276596 49.9667814,16.1276596 C50.1806574,16.1276596 50.437977,16.0851064 50.7387401,16 C51.0395032,15.9148936 51.3402663,15.8049645 51.6410295,15.6702128 C51.9417926,15.535461 52.2291885,15.3758865 52.5032171,15.1914894 C52.7772457,15.0070922 53.0078308,14.8085106 53.1949723,14.5957447 L53.1949723,5.34042553 L55.1399072,5.34042553 L55.1399072,17.6382979 Z" id="Path"></path>
                <path d="M66.0676343,14.5106383 C66.0676343,15.0780142 65.9406454,15.5780142 65.6866677,16.0106383 C65.4326899,16.4432624 65.091825,16.8085106 64.664073,17.106383 C64.236321,17.4042553 63.7450746,17.6276596 63.1903337,17.7765957 C62.6355928,17.9255319 62.0574592,18 61.455933,18 C60.6939997,18 59.9354082,17.858156 59.1801586,17.5744681 C58.424909,17.2907801 57.746521,16.8865248 57.1449948,16.3617021 L58.3480473,15.0638298 C58.7757993,15.4468085 59.2637039,15.7446809 59.8117612,15.9574468 C60.3598184,16.1702128 60.9145593,16.2765957 61.4759838,16.2765957 C61.8235323,16.2765957 62.1610554,16.2446809 62.488553,16.1808511 C62.8160507,16.1170213 63.1034466,16.0177305 63.3507407,15.8829787 C63.5980348,15.748227 63.7952018,15.5815603 63.9422415,15.3829787 C64.0892813,15.1843972 64.1628011,14.9503546 64.1628011,14.6808511 C64.1628011,14.1702128 63.8720634,13.748227 63.2905881,13.4148936 C62.7091127,13.0815603 61.8770013,12.7021277 60.7942541,12.2765957 C60.3397676,12.106383 59.8953065,11.9078014 59.4608709,11.6808511 C59.0264352,11.4539007 58.638785,11.1914894 58.2979201,10.893617 C57.9570552,10.5957447 57.6830266,10.251773 57.4758342,9.86170213 C57.2686418,9.47163121 57.1650456,9.02836879 57.1650456,8.53191489 C57.1650456,8.0212766 57.2719836,7.55319149 57.4858596,7.12765957 C57.6997356,6.70212766 58.0004988,6.33333333 58.388149,6.0212766 C58.7757993,5.70921986 59.2336276,5.46808511 59.761634,5.29787234 C60.2896404,5.12765957 60.8744576,5.04255319 61.5160856,5.04255319 C63.1602574,5.04255319 64.5437678,5.59574468 65.6666168,6.70212766 L64.4836151,7.95744681 C63.6548456,7.14893617 62.6656691,6.74468085 61.5160856,6.74468085 C61.2086388,6.74468085 60.9112175,6.78014184 60.6238216,6.85106383 C60.3364258,6.92198582 60.0791062,7.02836879 59.8518629,7.17021277 C59.6246197,7.31205674 59.44082,7.4893617 59.3004639,7.70212766 C59.1601077,7.91489362 59.0899297,8.16312057 59.0899297,8.44680851 C59.0899297,8.91489362 59.3472492,9.31205674 59.8618884,9.63829787 C60.3765275,9.96453901 61.2019552,10.3333333 62.3381715,10.7446809 C62.792658,10.9148936 63.2438027,11.1099291 63.6916056,11.3297872 C64.1394084,11.5496454 64.5370841,11.8120567 64.8846327,12.1170213 C65.2321812,12.4219858 65.5162352,12.7695035 65.7367949,13.1595745 C65.9573545,13.5496454 66.0676343,14 66.0676343,14.5106383 Z" id="Path"></path>
                <path d="M90.7703127,17.6595745 L88.8654796,17.6595745 L88.8654796,10.212766 C88.8654796,9.10638298 88.6014764,8.27304965 88.07347,7.71276596 C87.5454636,7.15248227 86.8938102,6.87234043 86.1185097,6.87234043 C85.6506559,6.87234043 85.1560676,7.0070922 84.6347449,7.27659574 C84.1134221,7.54609929 83.6656192,7.92198582 83.2913362,8.40425532 C83.3448052,8.64539007 83.3815652,8.91843972 83.401616,9.22340426 C83.4216669,9.52836879 83.4316924,9.85815603 83.4316924,10.212766 L83.4316924,17.6595745 L81.5068083,17.6595745 L81.5068083,10.212766 C81.5068083,9.09219858 81.2428051,8.25531915 80.7147987,7.70212766 C80.1867924,7.14893617 79.5418225,6.87234043 78.7798893,6.87234043 C78.3521373,6.87234043 77.8842835,7.0070922 77.376328,7.27659574 C76.8683725,7.54609929 76.4473041,7.91489362 76.1131228,8.38297872 L76.1131228,17.6595745 L74.1882388,17.6595745 L74.1882388,5.36170213 L76.1131228,5.34042553 L76.1131228,6.82978723 C76.2868971,6.56028369 76.5074567,6.31560284 76.7748017,6.09574468 C77.0421467,5.87588652 77.3295426,5.68794326 77.6369894,5.53191489 C77.9444361,5.37588652 78.2652501,5.25531915 78.5994314,5.17021277 C78.9336126,5.08510638 79.2611103,5.04255319 79.5819243,5.04255319 C79.889371,5.04255319 80.2035014,5.08865248 80.5243154,5.18085106 C80.8451294,5.27304965 81.1525762,5.40425532 81.4466557,5.57446809 C81.7407352,5.74468085 82.0047384,5.94680851 82.2386653,6.18085106 C82.4725921,6.41489362 82.6630755,6.67375887 82.8101152,6.95744681 C83.0507257,6.67375887 83.3280962,6.41489362 83.6422265,6.18085106 C83.9563569,5.94680851 84.2905382,5.74468085 84.6447703,5.57446809 C84.9990024,5.40425532 85.3599182,5.27304965 85.7275176,5.18085106 C86.095117,5.08865248 86.4593745,5.04255319 86.8202903,5.04255319 C87.341613,5.04255319 87.8428849,5.13475177 88.3241059,5.31914894 C88.8053269,5.5035461 89.2263953,5.79432624 89.5873111,6.19148936 C89.9482268,6.58865248 90.2356227,7.10283688 90.4494987,7.73404255 C90.6633747,8.36524823 90.7703127,9.13475177 90.7703127,10.0425532 L90.7703127,17.6595745 Z" id="Path"></path>
                <path d="M104.946282,11.4893617 C104.946282,11.6170213 104.94294,11.751773 104.936256,11.893617 C104.929573,12.035461 104.919547,12.1631206 104.90618,12.2765957 L94.4797247,12.2765957 C94.6000299,12.9148936 94.8005387,13.4787234 95.0812509,13.9680851 C95.3619632,14.4574468 95.6961444,14.8687943 96.0837947,15.2021277 C96.471445,15.535461 96.899197,15.787234 97.3670507,15.9574468 C97.8349045,16.1276596 98.3228091,16.212766 98.8307646,16.212766 C99.5926979,16.212766 100.230984,16.0567376 100.745623,15.7446809 C101.260262,15.4326241 101.711407,15.070922 102.099057,14.6595745 L103.382313,16.0212766 C102.76742,16.6595745 102.095715,17.1453901 101.3672,17.4787234 C100.638685,17.8120567 99.7731558,17.9787234 98.770612,17.9787234 C97.8883735,17.9787234 97.0696294,17.8085106 96.3143798,17.4680851 C95.5591301,17.1276596 94.9041349,16.6666667 94.349394,16.0851064 C93.7946531,15.5035461 93.3602175,14.8191489 93.0460871,14.0319149 C92.7319567,13.2446809 92.5748915,12.4042553 92.5748915,11.5106383 C92.5748915,10.6170213 92.7352985,9.77659574 93.0561125,8.9893617 C93.3769265,8.20212766 93.814704,7.5177305 94.3694449,6.93617021 C94.9241857,6.35460993 95.5758392,5.89361702 96.3244052,5.55319149 C97.0729712,5.21276596 97.8750062,5.04255319 98.7305102,5.04255319 C99.5592798,5.04255319 100.351289,5.20212766 101.106539,5.5212766 C101.861789,5.84042553 102.523468,6.28368794 103.091576,6.85106383 C103.659684,7.41843972 104.110828,8.09929078 104.44501,8.89361702 C104.779191,9.68794326 104.946282,10.5531915 104.946282,11.4893617 Z M102.981296,10.6595745 C102.874358,10.0070922 102.677191,9.43971631 102.389795,8.95744681 C102.102399,8.4751773 101.764876,8.07446809 101.377226,7.75531915 C100.989576,7.43617021 100.568507,7.19858156 100.114021,7.04255319 C99.6595341,6.88652482 99.2184149,6.80851064 98.7906629,6.80851064 C98.3228091,6.80851064 97.8582972,6.89007092 97.397127,7.05319149 C96.9359569,7.21631206 96.5082049,7.45744681 96.113871,7.77659574 C95.7195371,8.09574468 95.3786723,8.4964539 95.0912764,8.9787234 C94.8038805,9.46099291 94.6067136,10.0212766 94.4997755,10.6595745 L102.981296,10.6595745 Z" id="Shape"></path>
                <path d="M117.49813,17.6808511 L115.573246,17.6808511 L115.573246,16.6170213 C115.145494,17.0283688 114.634196,17.358156 114.039354,17.606383 C113.444511,17.8546099 112.806225,17.9787234 112.124495,17.9787234 C111.255624,17.9787234 110.466956,17.8049645 109.758492,17.4574468 C109.050027,17.1099291 108.441818,16.6453901 107.933862,16.0638298 C107.425907,15.4822695 107.034914,14.8085106 106.760886,14.0425532 C106.486857,13.2765957 106.349843,12.4751773 106.349843,11.6382979 C106.349843,10.7304965 106.490199,9.87943262 106.770911,9.08510638 C107.051624,8.29078014 107.449299,7.59574468 107.963938,7 C108.478577,6.40425532 109.090129,5.93262411 109.798593,5.58510638 C110.507058,5.23758865 111.282358,5.06382979 112.124495,5.06382979 C112.806225,5.06382979 113.431144,5.17021277 113.999252,5.38297872 C114.56736,5.59574468 115.092025,5.92907801 115.573246,6.38297872 L115.573246,0 L117.49813,0 L117.49813,17.6808511 Z M115.593296,14.9148936 L115.593296,8.04255319 C115.152177,7.63120567 114.680982,7.34042553 114.17971,7.17021277 C113.678438,7 113.14709,6.91489362 112.585665,6.91489362 C111.944037,6.91489362 111.35922,7.02836879 110.831214,7.25531915 C110.303207,7.4822695 109.848721,7.80496454 109.467754,8.22340426 C109.086787,8.64184397 108.792708,9.14184397 108.585515,9.72340426 C108.378323,10.3049645 108.274727,10.9503546 108.274727,11.6595745 C108.274727,12.3262411 108.378323,12.9326241 108.585515,13.4787234 C108.792708,14.0248227 109.083446,14.4964539 109.457729,14.893617 C109.832012,15.2907801 110.279814,15.5992908 110.801137,15.8191489 C111.32246,16.0390071 111.897252,16.1489362 112.525512,16.1489362 C113.127039,16.1489362 113.68178,16.0425532 114.189735,15.8297872 C114.697691,15.6170213 115.165544,15.3120567 115.593296,14.9148936 Z" id="Shape"></path>
                <path d="M121.969475,2.19148936 L119.904235,2.19148936 L119.904235,0 L121.969475,0 L121.969475,2.19148936 Z M121.909322,17.6595745 L119.964387,17.6595745 L119.964387,5.34042553 L121.909322,5.34042553 L121.909322,17.6595745 Z" id="Shape"></path>
                <path d="M134,17.6595745 L132.075116,17.6595745 L132.075116,16.6808511 C131.513691,17.1347518 130.888773,17.4680851 130.200359,17.6808511 C129.511946,17.893617 128.826874,18 128.145144,18 C127.463415,18 126.861888,17.9042553 126.340566,17.712766 C125.819243,17.5212766 125.381465,17.2588652 125.027233,16.9255319 C124.673001,16.5921986 124.408998,16.2021277 124.235224,15.7553191 C124.061449,15.3085106 123.974562,14.8368794 123.974562,14.3404255 C123.974562,13.0070922 124.479176,11.9858156 125.488403,11.2765957 C126.497631,10.5673759 128.024839,10.212766 130.070028,10.212766 L132.095167,10.212766 C132.108534,9.73049645 132.051723,9.27304965 131.924734,8.84042553 C131.797746,8.40780142 131.597237,8.03546099 131.323208,7.72340426 C131.04918,7.41134752 130.708315,7.16312057 130.300613,6.9787234 C129.892912,6.79432624 129.421717,6.70212766 128.887027,6.70212766 C128.285501,6.70212766 127.700683,6.81914894 127.132575,7.05319149 C126.564467,7.28723404 126.05317,7.63120567 125.598683,8.08510638 L124.455783,6.87234043 C125.097411,6.27659574 125.789167,5.82269504 126.531049,5.5106383 C127.272931,5.19858156 128.084992,5.04255319 128.96723,5.04255319 C129.729164,5.04255319 130.420919,5.16666667 131.042496,5.41489362 C131.664073,5.66312057 132.192079,6.0212766 132.626515,6.4893617 C133.060951,6.95744681 133.398474,7.5248227 133.639084,8.19148936 C133.879695,8.85815603 134,9.61702128 134,10.4680851 L134,17.6595745 Z M132.055065,15.0638298 L132.055065,11.6382979 L130.070028,11.6170213 C129.508604,11.6170213 128.973914,11.6631206 128.465958,11.7553191 C127.958003,11.8475177 127.513542,11.9964539 127.132575,12.2021277 C126.751609,12.4078014 126.450845,12.677305 126.230286,13.0106383 C126.009726,13.3439716 125.899446,13.7446809 125.899446,14.212766 C125.899446,14.5815603 125.97965,14.9007092 126.140057,15.1702128 C126.300464,15.4397163 126.510998,15.6595745 126.771659,15.8297872 C127.032321,16 127.329742,16.1276596 127.663923,16.212766 C127.998105,16.2978723 128.33897,16.3404255 128.686518,16.3404255 C129.381615,16.3404255 129.99985,16.2375887 130.541224,16.0319149 C131.082598,15.8262411 131.587211,15.5035461 132.055065,15.0638298 Z" id="Shape"></path>
            </g>
        </g>
    </g>
</svg>
