<svg width="204px" height="40px" viewBox="0 0 204 40" version="1.1" xmlns="http://www.w3.org/2000/svg" xmlns:xlink="http://www.w3.org/1999/xlink">
    <title>logo</title>
    <g id="1440*900" stroke="none" stroke-width="1" fill="none" fill-rule="evenodd">
        <g id="PM-1440*900-Home:full" transform="translate(-120.000000, -30.000000)">
            <g id="logo" transform="translate(120.000000, 30.000000)">
                <g id="Proces-Media" transform="translate(78.000000, 14.000000)" fill="#FFFFFF" fill-rule="nonzero">
                    <path d="M0,11.2723189 L0,0 L6.17069062,0 C7.99438518,0 8.90623245,0.914467528 8.90623245,2.74340258 L8.90623245,4.34699607 C8.90623245,6.17593112 7.99438518,7.09039865 6.17069062,7.09039865 L1.61145424,7.09039865 L1.61145424,11.2723189 L0,11.2723189 Z M1.61145424,5.47894441 L6.08422235,5.47894441 C6.51394348,5.47894441 6.82313307,5.38461538 7.01179113,5.19595733 C7.20044919,5.00729927 7.29477821,4.69810968 7.29477821,4.26838855 L7.29477821,2.82201011 C7.29477821,2.39228898 7.20044919,2.08309938 7.01179113,1.89444133 C6.82313307,1.70578327 6.51394348,1.61145424 6.08422235,1.61145424 L1.61145424,1.61145424 L1.61145424,5.47894441 Z" id="Shape"></path>
                    <path d="M20.0606401,4.02470522 C20.0606401,5.5968557 19.3898559,6.49298147 18.0482875,6.71308254 L20.1706906,11.2723189 L18.3862998,11.2723189 L16.2953397,6.7681078 L12.7658619,6.7681078 L12.7658619,11.2723189 L11.1544076,11.2723189 L11.1544076,0 L17.3250983,0 C19.1487928,0 20.0606401,0.914467528 20.0606401,2.74340258 L20.0606401,4.02470522 Z M12.7658619,5.15665357 L17.23863,5.15665357 C17.6683511,5.15665357 17.9775407,5.06232454 18.1661988,4.87366648 C18.3548568,4.68500842 18.4491859,4.37581883 18.4491859,3.9460977 L18.4491859,2.82201011 C18.4491859,2.39228898 18.3548568,2.08309938 18.1661988,1.89444133 C17.9775407,1.70578327 17.6683511,1.61145424 17.23863,1.61145424 L12.7658619,1.61145424 L12.7658619,5.15665357 Z" id="Shape"></path>
                    <path d="M32.4098821,9.66086468 C32.4098821,9.88096575 32.3679581,10.0892757 32.2841101,10.2857945 C32.200262,10.4823133 32.084971,10.6539397 31.9382369,10.8006738 C31.7915029,10.9474078 31.6198765,11.0626989 31.4233577,11.1465469 C31.2268389,11.2303949 31.0185289,11.2723189 30.7984278,11.2723189 L24.3604716,11.2723189 C24.1403706,11.2723189 23.9320606,11.2303949 23.7355418,11.1465469 C23.539023,11.0626989 23.3673966,10.9474078 23.2206625,10.8006738 C23.0739285,10.6539397 22.9586375,10.4823133 22.8747894,10.2857945 C22.7909414,10.0892757 22.7490174,9.88096575 22.7490174,9.66086468 L22.7490174,1.61145424 C22.7490174,1.39135317 22.7909414,1.18304323 22.8747894,0.986524424 C22.9586375,0.790005615 23.0739285,0.619689313 23.2206625,0.475575519 C23.3673966,0.331461726 23.539023,0.216170691 23.7355418,0.129702414 C23.9320606,0.0432341381 24.1403706,0 24.3604716,0 L30.7984278,0 C31.0185289,0 31.2268389,0.0432341381 31.4233577,0.129702414 C31.6198765,0.216170691 31.7915029,0.331461726 31.9382369,0.475575519 C32.084971,0.619689313 32.200262,0.790005615 32.2841101,0.986524424 C32.3679581,1.18304323 32.4098821,1.39135317 32.4098821,1.61145424 L32.4098821,9.66086468 Z M24.3604716,1.61145424 L24.3604716,9.66086468 L30.7984278,9.66086468 L30.7984278,1.61145424 L24.3604716,1.61145424 Z" id="Shape"></path>
                    <path d="M35.302639,1.61145424 C35.302639,1.39135317 35.344563,1.18304323 35.428411,0.986524424 C35.512259,0.790005615 35.6275501,0.619689313 35.7742841,0.475575519 C35.9210182,0.331461726 36.0926446,0.216170691 36.2891634,0.129702414 C36.4856822,0.0432341381 36.6939921,0 36.9140932,0 L43.0297586,0 C43.2498596,0 43.4581696,0.0432341381 43.6546884,0.129702414 C43.8512072,0.216170691 44.0228336,0.331461726 44.1695677,0.475575519 C44.3163017,0.619689313 44.4315927,0.790005615 44.5154408,0.986524424 C44.5992888,1.18304323 44.6412128,1.39135317 44.6412128,1.61145424 L44.6412128,3.06569343 L43.0297586,3.06569343 L43.0297586,1.61145424 L36.9140932,1.61145424 L36.9140932,9.66086468 L43.0297586,9.66086468 L43.0297586,8.21448624 L44.6412128,8.21448624 L44.6412128,9.66086468 C44.6412128,9.88096575 44.5992888,10.0892757 44.5154408,10.2857945 C44.4315927,10.4823133 44.3163017,10.6539397 44.1695677,10.8006738 C44.0228336,10.9474078 43.8512072,11.0626989 43.6546884,11.1465469 C43.4581696,11.2303949 43.2498596,11.2723189 43.0297586,11.2723189 L36.9140932,11.2723189 C36.6939921,11.2723189 36.4856822,11.2303949 36.2891634,11.1465469 C36.0926446,11.0626989 35.9210182,10.9474078 35.7742841,10.8006738 C35.6275501,10.6539397 35.512259,10.4823133 35.428411,10.2857945 C35.344563,10.0892757 35.302639,9.88096575 35.302639,9.66086468 L35.302639,1.61145424 Z" id="Path"></path>
                    <polygon id="Path" points="47.2195396 0 55.4340258 0 55.4340258 1.61145424 48.8309938 1.61145424 48.8309938 4.83436272 54.4671533 4.83436272 54.4671533 6.44581696 48.8309938 6.44581696 48.8309938 9.66086468 55.4340258 9.66086468 55.4340258 11.2723189 47.2195396 11.2723189"></polygon>
                    <path d="M59.458731,6.44581696 C59.23863,6.44581696 59.03032,6.40258282 58.8338012,6.31611454 C58.6372824,6.22964627 58.465656,6.11435523 58.318922,5.97024144 C58.1721879,5.82612764 58.0568969,5.65581134 57.9730488,5.45929253 C57.8892008,5.26277372 57.8472768,5.05446378 57.8472768,4.83436272 L57.8472768,1.61145424 C57.8472768,1.39135317 57.8892008,1.18304323 57.9730488,0.986524424 C58.0568969,0.790005615 58.1721879,0.619689313 58.318922,0.475575519 C58.465656,0.331461726 58.6372824,0.216170691 58.8338012,0.129702414 C59.03032,0.0432341381 59.23863,0 59.458731,0 L64.9298147,0 C65.1499158,0 65.3582257,0.0432341381 65.5547445,0.129702414 C65.7512633,0.216170691 65.9228898,0.331461726 66.0696238,0.475575519 C66.2163579,0.619689313 66.3316489,0.790005615 66.4154969,0.986524424 C66.4993449,1.18304323 66.541269,1.39135317 66.541269,1.61145424 L66.541269,3.06569343 L64.9298147,3.06569343 L64.9298147,1.61145424 L59.458731,1.61145424 L59.458731,4.83436272 L64.9298147,4.83436272 C65.1499158,4.83436272 65.3582257,4.87628673 65.5547445,4.96013476 C65.7512633,5.04398278 65.9228898,5.15927382 66.0696238,5.30600786 C66.2163579,5.45274191 66.3316489,5.62436833 66.4154969,5.82088714 C66.4993449,6.01740595 66.541269,6.22571589 66.541269,6.44581696 L66.541269,9.66086468 C66.541269,9.88096575 66.4993449,10.0892757 66.4154969,10.2857945 C66.3316489,10.4823133 66.2163579,10.6539397 66.0696238,10.8006738 C65.9228898,10.9474078 65.7512633,11.0626989 65.5547445,11.1465469 C65.3582257,11.2303949 65.1499158,11.2723189 64.9298147,11.2723189 L59.301516,11.2723189 C59.0814149,11.2723189 58.873105,11.2303949 58.6765862,11.1465469 C58.4800674,11.0626989 58.308441,10.9474078 58.1617069,10.8006738 C58.0149729,10.6539397 57.8996818,10.4823133 57.8158338,10.2857945 C57.7319858,10.0892757 57.6900618,9.88096575 57.6900618,9.66086468 L57.6900618,8.21448624 L59.301516,8.21448624 L59.301516,9.66086468 L64.9298147,9.66086468 L64.9298147,6.44581696 L59.458731,6.44581696 Z" id="Path"></path>
                    <polygon id="Path" points="80.0853453 11.2723189 75.8798428 3.01066816 75.8798428 11.2723189 74.2683885 11.2723189 74.2683885 0 76.0291971 0 80.3211679 8.48961258 84.6209994 0 86.3739472 0 86.3739472 11.2723189 84.7703537 11.2723189 84.7703537 3.01066816 80.5648512 11.2723189"></polygon>
                    <polygon id="Path" points="89.2745649 0 97.4890511 0 97.4890511 1.61145424 90.8860191 1.61145424 90.8860191 4.83436272 96.5221786 4.83436272 96.5221786 6.44581696 90.8860191 6.44581696 90.8860191 9.66086468 97.4890511 9.66086468 97.4890511 11.2723189 89.2745649 11.2723189"></polygon>
                    <path d="M105.632791,9.66086468 C106.382182,9.66086468 106.958637,9.45910537 107.362156,9.05558675 C107.765675,8.65206813 107.967434,8.07561295 107.967434,7.32622122 L107.967434,3.9460977 C107.967434,3.57926259 107.915029,3.25173124 107.810219,2.96350365 C107.705409,2.67527606 107.552124,2.43028261 107.350365,2.2285233 C107.148606,2.02676399 106.903612,1.87347932 106.615385,1.76866929 C106.327157,1.66385926 105.999626,1.61145424 105.632791,1.61145424 L101.513756,1.61145424 L101.513756,9.66086468 L105.632791,9.66086468 Z M99.9023021,11.2723189 L99.9023021,0 L105.632791,0 C106.235448,0 106.77915,0.0930189032 107.263897,0.27905671 C107.748643,0.465094516 108.162643,0.729739847 108.505896,1.0729927 C108.849148,1.41624555 109.113794,1.83155531 109.299832,2.31892195 C109.485869,2.8062886 109.578888,3.34868052 109.578888,3.9460977 L109.578888,7.32622122 C109.578888,7.92363841 109.485869,8.46603032 109.299832,8.95339697 C109.113794,9.44076362 108.849148,9.85607337 108.505896,10.1993262 C108.162643,10.5425791 107.748643,10.8072244 107.263897,10.9932622 C106.77915,11.1793 106.235448,11.2723189 105.632791,11.2723189 L99.9023021,11.2723189 Z" id="Shape"></path>
                    <polygon id="Path" points="113.768669 0 113.768669 11.2723189 112.157215 11.2723189 112.157215 0"></polygon>
                    <path d="M121.653004,0 L126,11.2723189 L124.388546,11.2723189 L123.39023,8.67827063 L118.304323,8.67827063 L117.306008,11.2723189 L115.694554,11.2723189 L120.04155,0 L121.653004,0 Z M118.917462,7.0668164 L122.769231,7.0668164 L120.851207,2.09882089 L118.917462,7.0668164 Z" id="Shape"></path>
                </g>
                <g id="PM">
                    <rect id="holder" fill="#F2112B" x="0" y="0" width="62" height="40"></rect>
                    <path d="M10,10 L19.2634445,10 C21.6078965,10 23.447243,10.6039326 24.781484,11.8117978 C26.115725,13.0196629 26.7828455,14.6629213 26.7828455,16.741573 C26.7828455,18.8202247 26.115725,20.4634831 24.781484,21.6713483 C23.447243,22.8792135 21.6078965,23.4831461 19.2634445,23.4831461 L14.8318584,23.4831461 L14.8318584,30 L10,30 L10,10 Z M14.8318584,19.4662921 L18.9489449,19.4662921 C19.9019741,19.4662921 20.6405718,19.2322097 21.1647379,18.7640449 C21.688904,18.2958801 21.9509871,17.6217228 21.9509871,16.741573 C21.9509871,15.8614232 21.6841389,15.1872659 21.1504425,14.7191011 C20.6167461,14.2509363 19.8829135,14.0168539 18.9489449,14.0168539 L14.8318584,14.0168539 L14.8318584,19.4662921 Z M33.5874745,10 C33.5874745,17.2347066 33.5874745,21.9444444 33.5874745,24.1292135 L33.5874745,30 L28.9843431,30 L28.9843431,10 L33.5874745,10 Z M42.7937372,17.1254682 C42.7937372,19.6098627 42.7937372,21.9444444 42.7937372,24.1292135 L42.7937372,30 L38.1906059,30 L38.1906059,17.1254682 L40.4921715,19.4662921 L42.7937372,17.1254682 Z M52,10 C52,17.2347066 52,21.9444444 52,24.1292135 L52,30 L47.3968686,30 L47.3968686,10 L52,10 Z" id="logo" fill="#FFFFFF" fill-rule="nonzero"></path>
                </g>
            </g>
        </g>
    </g>
</svg>
