<?xml version="1.0" encoding="UTF-8"?>
<svg width="300px" height="300px" viewBox="0 0 300 300" version="1.1" xmlns="http://www.w3.org/2000/svg" xmlns:xlink="http://www.w3.org/1999/xlink">
    <title>Combined Shape</title>
    <g id="1440*900" stroke="none" stroke-width="1" fill="none" fill-rule="evenodd">
        <g id="PM-1440*900-Home:full" transform="translate(-300.000000, -2722.000000)" fill="#c6a800">
            <g id="brands" transform="translate(0.000000, 1810.000000)">
                <g id="model" transform="translate(263.000000, 844.000000)">
                    <g id="shape" transform="translate(0.000000, 26.000000)">
                        <path d="M218.95728,242.790474 L271.90887,315.671705 C247.766114,332.279029 218.518284,342 187,342 C155.481716,342 126.233886,332.279029 102.09113,315.671705 L155.04272,242.790474 C164.295349,248.624459 175.253475,252 187,252 C198.746525,252 209.704651,248.624459 218.95728,242.790474 Z M43.1189282,149.455783 L128.813771,177.300425 C127.629191,182.004126 127,186.928585 127,192 C127,210.51817 135.389203,227.076938 148.57441,238.083103 L95.6234616,310.964613 C59.9740967,283.541515 37,240.453702 37,192 C37,177.22207 39.1370355,162.943272 43.1189282,149.455783 Z M330.881072,149.455783 C334.862965,162.943272 337,177.22207 337,192 C337,240.453702 314.025903,283.541515 278.376538,310.964613 L225.424585,238.083942 C238.610371,227.077779 247,210.518641 247,192 C247,186.928225 246.370719,182.003427 245.185976,177.299423 L330.881072,149.455783 Z M182.998426,42.0523403 L182.999817,132.13123 C159.482728,133.679206 139.666608,148.776682 131.284668,169.690448 L45.5896701,141.846399 C65.8016739,84.8599965 119.484197,43.7157056 182.998426,42.0523403 Z M191.000575,42.0523142 C254.51524,43.715274 308.19822,84.8596976 328.41033,141.846399 L242.715332,169.690448 C234.333273,148.776385 214.516709,133.678777 190.99918,132.131164 L191.000575,42.0523142 Z" id="Combined-Shape"></path>
                    </g>
                </g>
            </g>
        </g>
    </g>
</svg>
